<svg width="27" height="27" viewBox="0 0 27 27" fill="none" xmlns="http://www.w3.org/2000/svg">
<path d="M24.8394 0.00242142H2.31182C2.02146 -0.0111786 1.73125 0.0326084 1.45783 0.131301C1.18441 0.229994 0.93315 0.381635 0.718403 0.577536C0.503674 0.773454 0.32968 1.0098 0.206411 1.27303C0.0831415 1.53627 0.0129935 1.82123 0 2.1116V24.6883C0.0170096 25.2959 0.266045 25.8742 0.695959 26.304C1.12587 26.7339 1.70407 26.983 2.31182 27H24.8394C25.4302 26.9737 25.9872 26.7169 26.391 26.2847C26.7949 25.8526 27.0132 25.2796 26.9994 24.6883V2.1116C27.0043 1.82897 26.9513 1.54835 26.8438 1.28691C26.7363 1.02549 26.5765 0.788775 26.3742 0.591271C26.172 0.393784 25.9316 0.239696 25.6676 0.138439C25.4037 0.0371812 25.1219 -0.00910315 24.8394 0.00242142ZM8.43731 22.5117H4.50552V10.4809H8.43731V22.5117ZM6.56422 8.6585C6.28986 8.66807 6.01647 8.62079 5.76126 8.51965C5.50603 8.41851 5.27448 8.26569 5.08116 8.07079C4.88783 7.87588 4.73689 7.64311 4.63784 7.38709C4.53876 7.13107 4.49373 6.85733 4.50552 6.58307C4.49339 6.30584 4.53934 6.02915 4.64043 5.77073C4.74153 5.5123 4.89553 5.27786 5.09254 5.08245C5.28957 4.88702 5.52525 4.73494 5.7845 4.63596C6.04376 4.53696 6.32084 4.49326 6.59797 4.50763C6.87234 4.49808 7.14572 4.54535 7.40094 4.64649C7.65616 4.74763 7.88772 4.90045 8.08103 5.09535C8.27436 5.29026 8.42531 5.52303 8.52436 5.77905C8.62343 6.03507 8.66847 6.30881 8.65668 6.58307C8.66881 6.8603 8.62286 7.13699 8.52176 7.39541C8.42067 7.65384 8.26667 7.88828 8.06966 8.08369C7.87263 8.27912 7.63694 8.4312 7.3777 8.53018C7.11844 8.62918 6.84136 8.67288 6.56422 8.6585ZM22.5107 22.5117H18.5621V15.931C18.5621 14.3618 18.0052 13.2819 16.6046 13.2819C16.1696 13.2856 15.7462 13.4238 15.3929 13.6776C15.0393 13.9313 14.773 14.2882 14.6303 14.6993C14.5206 15.0074 14.4747 15.3345 14.4953 15.661V22.5117H10.6141V10.4809H14.4953V12.1682C14.8404 11.5343 15.3539 11.0082 15.9792 10.6478C16.6046 10.2875 17.3174 10.1071 18.039 10.1265C20.587 10.1265 22.5107 11.8139 22.5107 15.4079V22.5117Z" fill="black"/>
</svg>
