<svg width="165" height="63" viewBox="0 0 165 63" fill="none" xmlns="http://www.w3.org/2000/svg">
<path fill-rule="evenodd" clip-rule="evenodd" d="M31.0591 13.6136V12.6405H21.8144V13.5596C23.7066 13.5596 24.6527 14.3074 24.6527 15.8032C24.6527 16.4159 24.4995 17.1458 24.1932 17.9927L21.7881 24.4563H23.5511L25.3014 19.7768C26.8152 15.668 28.7344 13.6136 31.0591 13.6136ZM20.3799 32.9342H18.6335L16.8406 37.7527L15.0138 32.9342H10.5394L15.0565 44.7809H15.9486L20.3799 32.9342ZM7.30668 24.4563L5.2441 19.047C4.32503 16.6682 3.53211 15.1725 2.86533 14.5597C2.19856 13.929 1.24345 13.5956 0 13.5596V12.6405H11.5154V13.5596C9.65924 13.5596 8.73116 14.2714 8.73116 15.6951C8.73116 16.1636 8.8483 16.6952 9.08257 17.2899L11.7995 24.4563H7.30668ZM37.5197 32.9342H41.7366V34.6171C41.7366 37.2121 42.4484 39.2575 43.872 40.7532C45.2957 42.2309 47.278 42.9698 49.819 42.9698C53.5854 42.9698 56.6039 41.2128 58.8745 37.6987V32.9342H63.0914V38.3745C63.0914 40.2306 63.3437 41.5371 63.8483 42.294C64.3709 43.0329 65.317 43.4023 66.6866 43.4023V44.3484H58.8745V39.9152C55.901 43.3933 52.3779 45.1323 48.3052 45.1323C44.9533 45.1323 42.3132 44.1322 40.385 42.1318C38.4748 40.1315 37.5197 37.4914 37.5197 34.2116V32.9342ZM100.625 32.9342C101.257 36.0578 102.775 38.6822 105.179 40.8073C108.459 43.6906 113.028 45.1323 118.884 45.1323C120.002 45.1323 121.569 45.0512 123.588 44.889C125.624 44.7268 127.012 44.5466 127.751 44.3484V35.8335C127.751 34.556 127.948 33.5896 128.343 32.9342H122.877C123.315 33.7343 123.534 35.0251 123.534 36.8066V40.2396C123.534 42.4922 121.759 43.6186 118.209 43.6186C114.46 43.6186 111.343 42.0868 108.856 39.0232C107.432 37.2571 106.419 35.2274 105.817 32.9342H100.625ZM105.349 24.4563H100.88C101.235 23.0581 101.749 21.7326 102.422 20.4796C103.864 17.8305 105.864 15.7311 108.423 14.1813C111 12.6315 113.73 11.8566 116.614 11.8566C118.344 11.8566 120.227 12.163 122.263 12.7757C123.561 13.1541 124.552 13.3433 125.237 13.3433C126.138 13.3433 126.732 12.9919 127.021 12.2891H128.021V21.642H127.129C126.769 19.047 125.588 16.9746 123.588 15.4247C121.605 13.8569 119.281 13.073 116.614 13.073C113.262 13.073 110.514 14.4156 108.369 17.1007C106.755 19.1084 105.748 21.5602 105.349 24.4563ZM141.107 32.9342L139.266 38.4285C138.599 40.3568 137.942 41.6272 137.293 42.24C136.644 42.8527 135.734 43.2401 134.563 43.4023V44.3484H142.753V43.4023C141.077 43.3663 140.239 42.6815 140.239 41.3479C140.239 40.6271 140.51 39.4647 141.05 37.8609L142.727 32.9342H141.107ZM153.9 32.9342L156.323 40.2937C156.485 40.7442 156.566 41.1497 156.566 41.5101C156.566 42.7716 155.656 43.4023 153.836 43.4023V44.3484H165V43.4023C163.702 43.4023 162.756 43.168 162.162 42.6995C161.585 42.2309 161.026 41.1947 160.486 39.5909L158.245 32.9342H153.9ZM155.391 24.4563L151.295 12.2891H148.024L143.948 24.4563H145.492L148.24 16.1276L151.022 24.4563H155.391ZM63.0914 24.4563H58.8745V18.6145C58.8745 16.7583 58.6222 15.4698 58.1176 14.749C57.6311 14.0101 56.757 13.6136 55.4956 13.5596V12.6405H66.6866V13.5596C65.335 13.5596 64.3979 13.929 63.8753 14.6679C63.3527 15.4067 63.0914 16.7223 63.0914 18.6145V24.4563ZM41.7366 24.4563V18.5604C41.7366 16.6682 41.9889 15.3617 42.4934 14.6408C42.998 13.92 43.9622 13.5596 45.3858 13.5596V12.6405H33.9245V13.5596C35.3301 13.5596 36.2762 13.929 36.7628 14.6679C37.2674 15.4067 37.5197 16.7223 37.5197 18.6145V24.4563H41.7366Z" fill="white"/>
<path d="M92.0069 25.2938H92.953V32.9979H92.0069C91.6645 31.6463 91.25 30.7993 90.7634 30.4569C90.2769 30.1145 89.2136 29.9433 87.5737 29.9433H79.7074V41.2966C79.7074 42.0896 79.8786 42.6482 80.221 42.9726C80.5814 43.297 81.1852 43.4592 82.0322 43.4592H87.5737C89.556 43.4592 90.9256 43.3511 91.6825 43.1348C92.4394 42.9186 93.0791 42.5221 93.6018 41.9454C94.1244 41.3507 94.683 40.3956 95.2777 39.08H96.2238L94.7641 45H71.9223V44.0539C73.3459 44.0539 74.3011 43.6935 74.7876 42.9726C75.2742 42.2337 75.5175 40.9362 75.5175 39.08V19.2657C75.5175 17.3375 75.2652 16.0129 74.7606 15.292C74.256 14.5712 73.3099 14.2108 71.9223 14.2108V13.2917H94.7641V18.5899H94.1694C93.845 17.0761 93.3765 16.076 92.7638 15.5894C92.1691 15.0848 90.8625 14.8325 88.8442 14.8325H79.7074V28.4025H88.5738C89.7813 28.4025 90.6012 28.1862 91.0337 27.7537C91.4843 27.3212 91.8087 26.5012 92.0069 25.2938Z" fill="white"/>
</svg>
