<svg width="27" height="27" viewBox="0 0 27 27" fill="none" xmlns="http://www.w3.org/2000/svg">
<path fill-rule="evenodd" clip-rule="evenodd" d="M21.3584 19.0635C21.033 19.9844 19.7397 20.7463 18.7083 20.9692C18.0023 21.1191 17.0815 21.2376 13.9792 19.9521C10.4949 18.5085 5.6565 13.3663 5.6565 9.94438C5.6565 8.20236 6.6609 6.17388 8.41725 6.17388C9.26235 6.17388 9.44865 6.19036 9.72675 6.85745C10.0521 7.64339 10.8459 9.57977 10.9404 9.77827C11.3306 10.5926 10.5435 11.0693 9.97244 11.7782C9.79019 11.9916 9.58366 12.2223 9.81451 12.6193C10.044 13.0083 10.8378 14.302 12.0042 15.3404C13.5108 16.6827 14.7325 17.1113 15.1699 17.2936C15.4953 17.4286 15.8841 17.3972 16.1217 17.1433C16.4228 16.8178 16.7967 16.2779 17.1774 15.7458C17.446 15.365 17.7876 15.3175 18.1454 15.4525C18.387 15.5362 21.4582 16.9625 21.5878 17.1907C21.6837 17.3569 21.6837 18.1425 21.3584 19.0635ZM13.5027 0H13.4959C6.05339 0 0 6.05522 0 13.5C0 16.452 0.951759 19.1907 2.57041 21.4121L0.888306 26.4285L6.07636 24.7707C8.21071 26.1832 10.7581 27 13.5027 27C20.9452 27 27 20.9448 27 13.5C27 6.05522 20.9452 0 13.5027 0Z" fill="black"/>
</svg>
